inDegrees=no
num_controls=7
num_derivatives=13
num_iterations=75
num_multipliers=7
num_parameters=0
num_slacks=7
num_states=26
objective=0.333906
objective_accelerations=0.036906
objective_balance=0.001337
objective_effort=0.027147
objective_height=0.267044
objective_ligament=0.001471
solver_duration=787.412863
status=Solve_Succeeded
success=true
DataType=double
version=3
OpenSimVersion=4.5
endheader
time	/jointset/ground_pelvis/pelvis_tilt/value	/jointset/ground_pelvis/pelvis_tx/value	/jointset/ground_pelvis/pelvis_ty/value	/jointset/hip_r/hip_flexion_r/value	/jointset/hip_r/hip_adduction_r/value	/jointset/hip_r/hip_rotation_r/value	/jointset/back/lumbar_extension/value	/jointset/patellofemoral_r/patellar_flexion_r/value	/jointset/knee_r/knee_flexion_r/value	/jointset/knee_r/knee_adduction_r/value	/jointset/knee_r/knee_rotation_r/value	/jointset/ankle_r/ankle_angle_r/value	/jointset/subtalar_r/subtalar_angle_r/value	/jointset/ground_pelvis/pelvis_tilt/speed	/jointset/ground_pelvis/pelvis_tx/speed	/jointset/ground_pelvis/pelvis_ty/speed	/jointset/hip_r/hip_flexion_r/speed	/jointset/hip_r/hip_adduction_r/speed	/jointset/hip_r/hip_rotation_r/speed	/jointset/back/lumbar_extension/speed	/jointset/patellofemoral_r/patellar_flexion_r/speed	/jointset/knee_r/knee_flexion_r/speed	/jointset/knee_r/knee_adduction_r/speed	/jointset/knee_r/knee_rotation_r/speed	/jointset/ankle_r/ankle_angle_r/speed	/jointset/subtalar_r/subtalar_angle_r/speed	/forceset/tau_hip_flexion_r	/forceset/tau_hip_adduction_r	/forceset/tau_hip_rotation_r	/forceset/tau_knee_flexion_r	/forceset/tau_ankle_angle_r	/forceset/tau_subtalar_angle_r	/forceset/tau_lumbar_extension	lambda_cid13_p0	lambda_cid14_p0	lambda_cid14_p1	lambda_cid14_p2	lambda_cid14_p3	lambda_cid14_p4	lambda_cid14_p5	/jointset/ground_pelvis/pelvis_tilt/accel	/jointset/ground_pelvis/pelvis_tx/accel	/jointset/ground_pelvis/pelvis_ty/accel	/jointset/hip_r/hip_flexion_r/accel	/jointset/hip_r/hip_adduction_r/accel	/jointset/hip_r/hip_rotation_r/accel	/jointset/back/lumbar_extension/accel	/jointset/patellofemoral_r/patellar_flexion_r/accel	/jointset/knee_r/knee_flexion_r/accel	/jointset/knee_r/knee_adduction_r/accel	/jointset/knee_r/knee_rotation_r/accel	/jointset/ankle_r/ankle_angle_r/accel	/jointset/subtalar_r/subtalar_angle_r/accel	gamma_cid13_p0	gamma_cid14_p0	gamma_cid14_p1	gamma_cid14_p2	gamma_cid14_p3	gamma_cid14_p4	gamma_cid14_p5
1	-0.2806727854369972	-0.008732354044549166	0.6318966014040799	1.470956956154731	-0.2381018732583493	-0.08816520904767268	-0.7853970667123352	1.507042633252609	1.507042633252606	-0.1744526251440082	0.1738135299550918	0.4362394844989356	0.1761878826168832	0.06965669702707687	0.006707388141389222	0.01686938487410024	-0.1048364053868823	-0.00184177997893881	0.005122084686523774	0.0002338154972951108	-0.01977320649613394	-0.01977320649613386	0.01328198715813807	0.0001706540112267008	0.0143644284455175	0.003805267656729011	-0.3645490389697128	0.04885707854887482	0.007364181048814171	-0.4320359818198578	-0.04713833614058405	0.000317499113438406	0.3748809892959509	-0.04108938437575715	-67.53863098430081	-16.41352075566409	8.436795723465014	8.510081442757711	-773.8835773517138	52.79122321345064	1.437267757215074	0.1653892189039393	1.876990587560427	-5.713271504067393	0.2334984738286305	-0.346905717437209	0.01428831574228086	-5.111814426316446	-5.111814426316447	0.9998541110749254	0.004067155847712303	-1.023760980204714	-0.07858524704243595	1.31181946658639e-09	2.542754901201031e-09	1.676519598029711e-08	1.408997641137951e-08	-3.430109450738247e-09	-3.97055475455123e-09	3.120284443864498e-08
1.01	-0.2799051758286503	-0.008656859303724656	0.6321589288480947	1.469623956540227	-0.2381087940972947	-0.08812853368107973	-0.7853916993139387	1.506590045763543	1.506590045763542	-0.1742669173001481	0.1738152609451651	0.4363321810507279	0.1762217231422015	0.08385148580780581	0.008410632594950241	0.03558744909935232	-0.1617532943372477	0.0004460996124123211	0.002235609586983416	0.0009930760070759146	-0.07071441586065776	-0.07071441586065759	0.023888490820804	0.0001837606964390708	0.004205180181464352	0.002955956691157545	-0.3652547597318758	0.04887803173750646	0.007410836186636838	-0.431712092090007	-0.0475665360971435	0.0003520839090366202	0.3758307758808291	-0.04108123839535089	-67.6877396534161	-16.41258144886541	8.422908499199492	8.33326142101072	-774.2709452326848	52.78260270134916	1.408525540849804	0.1756518355295602	1.867913975437969	-5.679362332329236	0.2247124565437889	-0.2561218857356659	0.1297566912552381	-5.080794075021091	-5.080794075021053	1.095384497820214	0.001179025895876122	-1.007462315201981	-0.08912285233650359	5.963005191892123e-09	8.939814432683598e-09	4.601777791339351e-08	5.091193852993372e-08	-5.522910872992292e-09	-1.063339756643449e-08	9.469561816844877e-08
1.02	-0.2789960301120276	-0.008563760162974932	0.6326081768614482	1.467722095087858	-0.2380931801893748	-0.0881200437613858	-0.7853741369558633	1.505628942204131	1.505628942204129	-0.1739742772188596	0.1738173723223009	0.4363241940068217	0.17624686679166	0.09796391868245531	0.01022826812643175	0.05425349874181971	-0.2186087729599361	0.002665169393978629	-0.0005150046934846977	0.002672807423224716	-0.121476420565212	-0.1214764205652117	0.03466843464177819	0.0002467314231654315	-0.005772290710443479	0.002065892484707438	-0.3659604804940378	0.04889898492614658	0.007457491324397684	-0.4313882023601632	-0.04799473605370155	0.0003866687046529378	0.3767805624657076	-0.04107955814386154	-67.8440691821159	-16.40701054291357	8.401547857239906	8.153944754931711	-774.7836780000328	52.81449963306847	1.420796575999173	0.188267434488052	1.866587671003488	-5.70098943853201	0.2197365118716637	-0.3197335536227726	0.1983824970157519	-5.07597349432251	-5.075973494322515	1.03454214273656	0.01403996415050962	-0.9874055057756176	-0.08673589521815252	1.222773728048895e-08	1.848568743038028e-08	7.940351204277709e-08	9.816922462846622e-08	-1.121541798079486e-08	-1.784027136005449e-08	1.748364053493934e-07
1.03	-0.2779466736589588	-0.008451994175503396	0.6332437615287074	1.465252645758337	-0.2380556637804711	-0.08813865163925075	-0.7853349583671463	1.504160874176618	1.504160874176619	-0.1735732317913667	0.1738203468436468	0.436216944374526	0.176262813549186	0.1118416294038675	0.01213592771923568	0.07284819781265323	-0.2752029985000649	0.004832480154659665	-0.003207774961130609	0.005340432418086089	-0.1721309797250076	-0.1721309797250076	0.04554626764529084	0.0003535442482391061	-0.01568694032847628	0.001107887121575978	-0.366176359816237	0.04894401829015325	0.007578177415283549	-0.4310140702170394	-0.04833074272562506	0.0003837135832377347	0.3773393029370786	-0.04110025801670605	-67.96004043233282	-16.41242371007731	8.383934241509362	8.094662198073319	-774.9942987792795	52.82158178169256	1.361402495356973	0.1936615507662772	1.853620436265776	-5.626919688306026	0.2144022039854279	-0.2442175525317442	0.3275808152708639	-5.059270084757095	-5.059270084757108	1.115243048045182	0.009846930086365452	-0.9948900751473437	-0.1026336286110771	1.850893412789488e-08	2.806369117773223e-08	1.128314211945718e-07	1.455329936247537e-07	-1.694465677926631e-08	-2.505269649022281e-08	2.55147070218615e-07
1.04	-0.2767605112636479	-0.008320822326285757	0.6340648350689035	1.462219598058106	-0.2379966394947958	-0.08818422097763227	-0.7852637778655654	1.502186445965916	1.502186445965918	-0.1730632402000544	0.1738245584909247	0.4360102691689816	0.1762687200987308	0.1253251071310696	0.01410944047565211	0.0913512733291901	-0.3313284471022997	0.006966744748103834	-0.005907296796625836	0.009073189994928262	-0.2227484572027641	-0.2227484572027645	0.05645766740426361	0.0004941566093346166	-0.02565740535971835	5.785088842837203e-05	-0.3663922391384276	0.04898905165416475	0.007698863506133411	-0.4306399380739194	-0.04866674939754929	0.000380758461832035	0.3778980434084573	-0.04112741922356872	-68.08322242721285	-16.41315236340942	8.358780363786579	8.031340280670459	-775.331662871194	52.86913212096238	1.341949977157139	0.2014380672105662	1.848262960144163	-5.607234050953207	0.2131272784242886	-0.321083867192648	0.4114090134118925	-5.068557157914698	-5.068557157914716	1.041255493828572	0.02079987135487694	-0.998568588417441	-0.1051420692213715	2.305659063140092e-08	3.515350769587833e-08	1.389038830425165e-07	1.813800503725126e-07	-2.130535672816877e-08	-3.059819685449853e-08	3.141628890560365e-07
1.05	-0.27544107939537	-0.008169544758667708	0.6350704369706849	1.458627355915863	-0.2379165049119318	-0.08825656233868866	-0.7851503265587241	1.499706224576873	1.499706224576875	-0.1724436725690064	0.1738303824153095	0.4357036444958739	0.1762635517913706	0.1385331890378179	0.01616114450667321	0.1097491828734873	-0.3870674081679635	0.009048537004538698	-0.008530048337971779	0.01375988407151128	-0.273269756410068	-0.2732697564100685	0.06749645783858405	0.0006771977012498794	-0.03567354454372954	-0.001117333090767551	-0.3663474214056707	0.04901015245346484	0.007872063743095107	-0.4298980910135135	-0.04898807104987948	0.0003718704206366374	0.3782422618990716	-0.04115850041822571	-68.17280092038669	-16.40528760259826	8.326218622793615	7.952780282583984	-775.242098906749	52.87079566826212	1.30603389432306	0.2092921216232018	1.832559054721647	-5.549333349727884	0.2039879252614061	-0.2282140227907185	0.5187215094748265	-5.040012228133983	-5.040012228133969	1.141275747502077	0.01809972805952674	-1.004038257092131	-0.1275281110730428	2.75500739991601e-08	4.216556836311176e-08	1.647464871622159e-07	2.16867209862505e-07	-2.562328983802219e-08	-3.609160581984012e-08	3.725132439549644e-07
1.06	-0.2739904073886473	-0.007997299040624269	0.6362594187885391	1.454479302919895	-0.2378158958613006	-0.08835419986019814	-0.7849857239301774	1.496721571010557	1.496721571010558	-0.1717125000477578	0.1738382454506026	0.4352966780961857	0.1762458673344579	0.1515731348201424	0.01830307056072984	0.128027256543754	-0.4424906178478221	0.01106163830130657	-0.01096652888672385	0.01930345433582681	-0.3236348926572026	-0.3236348926572031	0.07877864544363471	0.0009019787911513527	-0.04572575067570759	-0.002445379022136011	-0.366302603672907	0.0490312532527656	0.008045263980047485	-0.429156243953109	-0.04930939270221129	0.000362982379441896	0.3785864803896917	-0.04119616072801102	-68.26964719304971	-16.39265083983033	8.285991330817454	7.869603568747987	-775.2814900419299	52.9130272620519	1.308322752272371	0.2194824718176866	1.824295785338074	-5.544083773792184	0.1993890864908884	-0.283829668673885	0.5827842509583874	-5.037324565880843	-5.037324565880843	1.089934927974605	0.02914787095212	-1.00578197801078	-0.1357144596558692	3.282684244720361e-08	5.020353432430738e-08	1.922997656907045e-07	2.591928613164186e-07	-3.041814785161547e-08	-4.127083625094599e-08	4.379427768560825e-07
1.07	-0.272410304722197	-0.007803174437787551	0.6376304909149577	1.449778897186893	-0.2376954739394487	-0.08847566802495553	-0.7847612778495996	1.493234104786076	1.493234104786076	-0.1708677529241933	0.1738485249299558	0.4347889307744316	0.1762141579188556	0.1644037603141578	0.0205377371181325	0.1461578856275319	-0.4975052876369922	0.0130145045364535	-0.01332590472674758	0.02574421503945923	-0.373825983961848	-0.3738259839618482	0.09017387138706019	0.001153955737474842	-0.05583748734021009	-0.003918864897299066	-0.3658962473467451	0.04903077707605329	0.008269609685102699	-0.4281758738297078	-0.04949152645746792	0.0003327912816191464	0.3786598990190155	-0.04124300395783521	-68.29626765861006	-16.37533497051222	8.243150944437774	7.764089416329987	-774.9132363881366	52.91978300338649	1.263897983909913	0.227834698634666	1.803044643359336	-5.467361654587996	0.1920382370723303	-0.2117860826014717	0.6984899690139721	-5.005153875430922	-5.005153875430859	1.164772845930043	0.0233086343343891	-1.015934455954752	-0.1564493828636766	3.814527499526226e-08	5.82960697160329e-08	2.199440375388094e-07	3.018822623428811e-07	-3.523837421115235e-08	-4.643335505789038e-08	5.037488617785938e-07
1.08	-0.2707032026936185	-0.00758622797919008	0.6391819889669063	1.444530904141378	-0.2375557627862352	-0.08862068885630325	-0.784467670564196	1.489245697156014	1.489245697156013	-0.1699089622575118	0.1738613413843433	0.4341796530969755	0.1761670568982187	0.1769730072459246	0.02286744171288045	0.1641124416497799	-0.5520080803505035	0.01491948457343048	-0.01567706220416571	0.03313569530102353	-0.4238231737734754	-0.4238231737734753	0.1015873540666254	0.001409373798274609	-0.06603182181610323	-0.005523700029147238	-0.3654898910205868	0.04903030089933965	0.008493955390160212	-0.4271955037063068	-0.04967366021272494	0.0003026001837936603	0.3787333176483355	-0.0412964784634058	-68.330225015248	-16.35320816777262	8.192580525297052	7.653374164601071	-774.6763402714297	52.96692974507997	1.256047039822608	0.2384900792867582	1.789081173032117	-5.441708358660442	0.1898118468568964	-0.2821859961527762	0.772928162544761	-4.998544267277228	-4.998544267277229	1.09358627520253	0.02983609384737723	-1.02230154028888	-0.1619843109928826	4.167534885873391e-08	6.325974801718197e-08	2.382677071180128e-07	3.308743940228156e-07	-3.784649749732915e-08	-5.045996372120899e-08	5.45214134949034e-07
